<svg xmlns="http://www.w3.org/2000/svg" width="93" height="106" fill="none" viewBox="0 0 93 106"><path fill="#000" d="M71.9783 66.9597V53.1897L87.6632 37.4019V13.8486H63.7246V89.7177L87.7365 65.6299V51.1525L71.9783 66.9597ZM71.9783 22.3848H79.5215V31.1134L71.9783 38.7045V22.3848Z"/><path fill="#000" d="M31.2265 13.8486V46.5926L23.0115 38.3521V22.3848H15.4554V59.3866L23.0115 66.9674V52.8295L31.2265 61.07V89.6853L7.24035 65.6247L7.16699 13.8486H31.2265Z"/><path fill="#000" d="M51.4554 58.8934V28.2409C48.8509 28.8978 46.1266 28.9137 43.5145 28.2873V87.5707L47.4541 91.5225L51.4554 87.5087V73.3708L59.5753 65.2258V93.8411L47.4541 106L35.3008 93.8089V13.8486H35.3214C35.728 16.7692 37.1735 19.4439 39.3914 21.3796C41.6092 23.3152 44.4499 24.3813 47.3898 24.3813C50.3296 24.3813 53.1703 23.3152 55.3882 21.3796C57.606 19.4439 59.0515 16.7692 59.4581 13.8486H59.5753V50.7484L51.4554 58.8934Z"/><path fill="#000" d="M46.1577 0C43.4433 0.284612 40.9027 1.47462 38.9426 3.37949C36.9825 5.28436 35.7163 7.79389 35.3467 10.5063H7.24077L0 0H46.1577Z"/><path fill="#000" d="M92.9996 0L87.7344 10.5063H59.5011C59.1318 7.79468 57.8663 5.28574 55.9072 3.38097C53.9482 1.4762 51.4087 0.285701 48.6953 0L92.9996 0Z"/><path fill="#000" d="M47.5892 17.6247C50.6286 17.6247 53.0925 15.1532 53.0925 12.1044C53.0925 9.05554 50.6286 6.58398 47.5892 6.58398C44.5498 6.58398 42.0859 9.05554 42.0859 12.1044C42.0859 15.1532 44.5498 17.6247 47.5892 17.6247Z"/><path fill="#000" d="M54.0003 15.4135C53.9998 15.1589 54.0614 14.9081 54.1796 14.6829C54.2978 14.4576 54.4691 14.2648 54.6785 14.1211C54.888 13.9774 55.1293 13.8873 55.3814 13.8585C55.6335 13.8297 55.8888 13.8631 56.1251 13.9559C56.1432 13.8771 56.1625 13.7997 56.1779 13.7196C56.4642 12.2772 56.3855 10.7858 55.9488 9.38184C55.606 9.47269 55.2426 9.44348 54.9186 9.29906C54.5946 9.15463 54.3294 8.90363 54.1669 8.58754C54.0044 8.27145 53.9543 7.9092 54.0249 7.56066C54.0954 7.21213 54.2824 6.89818 54.555 6.67071C54.0521 6.00741 53.4585 5.41852 52.7918 4.92138C52.5898 5.17416 52.3146 5.35778 52.0041 5.44685C51.6936 5.53593 51.3632 5.52606 51.0586 5.41862C50.7539 5.31118 50.4901 5.11147 50.3035 4.84709C50.1169 4.58272 50.0168 4.26672 50.0169 3.94279C50.0172 3.81208 50.0341 3.68193 50.0671 3.55549C48.6706 3.14038 47.1932 3.07917 45.7672 3.37733C45.8387 3.55768 45.8754 3.75 45.8753 3.94408C45.876 4.30551 45.7518 4.656 45.5238 4.93592C45.2959 5.21585 44.9784 5.40791 44.6252 5.47944C44.272 5.55096 43.905 5.49753 43.5867 5.32823C43.2683 5.15894 43.0183 4.88423 42.8791 4.55086C42.6998 4.66447 42.5252 4.7841 42.3553 4.90976C41.8622 5.27591 41.4084 5.69257 41.0014 6.15301C41.3023 6.38972 41.506 6.72918 41.5737 7.10678C41.6414 7.48437 41.5682 7.87374 41.3683 8.20077C41.1683 8.5278 40.8555 8.76966 40.4893 8.88031C40.123 8.99097 39.7291 8.9627 39.3823 8.80088C39.1826 9.31079 39.0318 9.83861 38.9318 10.3772C38.7252 11.4823 38.7313 12.6169 38.9499 13.7196C38.9627 13.7894 38.9795 13.8591 38.9949 13.9288C39.1526 13.8759 39.3177 13.8488 39.484 13.8487C39.8334 13.8486 40.1727 13.9663 40.4474 14.1829C40.7221 14.3994 40.9164 14.7023 40.9989 15.0428C41.0814 15.3834 41.0475 15.7419 40.9025 16.0608C40.7576 16.3797 40.51 16.6405 40.1996 16.8013C40.7371 17.6286 41.4088 18.3599 42.1867 18.965C42.3992 18.6411 42.7241 18.4079 43.0983 18.3108C43.4725 18.2137 43.8693 18.2595 44.2118 18.4393C44.5542 18.6192 44.8178 18.9203 44.9514 19.2842C45.0849 19.648 45.0789 20.0487 44.9345 20.4084C46.6021 20.9307 48.3869 20.9437 50.062 20.4458C49.9724 20.0997 50.0039 19.7331 50.1513 19.4075C50.2987 19.0818 50.553 18.8167 50.8718 18.6565C51.1906 18.4964 51.5545 18.4508 51.9028 18.5273C52.2511 18.6039 52.5626 18.7981 52.7853 19.0774C53.6168 18.4593 54.3335 17.6994 54.9025 16.8323C54.6329 16.7067 54.4047 16.5064 54.2448 16.255C54.085 16.0036 54.0001 15.7116 54.0003 15.4135ZM47.5652 18.783C46.0012 18.7832 44.4855 18.2392 43.2766 17.2439C42.0677 16.2485 41.2404 14.8634 40.9357 13.3246C40.849 12.8889 40.8059 12.4456 40.807 12.0013C40.8556 10.2361 41.5888 8.55955 42.8507 7.32824C44.1125 6.09692 45.8035 5.408 47.5639 5.408C49.3243 5.408 51.0153 6.09692 52.2771 7.32824C53.539 8.55955 54.2722 10.2361 54.3207 12.0013C54.3218 12.4456 54.2787 12.8889 54.192 13.3246C53.8875 14.8627 53.0607 16.2474 51.8526 17.2426C50.6445 18.2379 49.1298 18.7823 47.5665 18.783H47.5652Z"/><path fill="#000" d="M47.5294 6.48096V7.77585L46.3428 8.96487V13.792"/><path stroke="#fff" stroke-miterlimit="10" stroke-width=".2" d="M47.5294 6.48096V7.77585L46.3428 8.96487V13.792"/><path fill="#000" d="M47.5293 17.523V15.7905L48.5486 14.768V10.5063"/><path stroke="#fff" stroke-miterlimit="10" stroke-width=".22" d="M47.5293 17.523V15.7905L48.5486 14.768V10.5063"/><path fill="#000" stroke="#fff" stroke-miterlimit="10" stroke-width=".4" d="M48.5488 10.2984C48.949 10.2984 49.2734 9.97299 49.2734 9.57157C49.2734 9.17014 48.949 8.84473 48.5488 8.84473C48.1486 8.84473 47.8242 9.17014 47.8242 9.57157C47.8242 9.97299 48.1486 10.2984 48.5488 10.2984Z"/><path fill="#000" stroke="#fff" stroke-miterlimit="10" stroke-width=".4" d="M46.415 15.1422C46.8152 15.1422 47.1396 14.8168 47.1396 14.4153C47.1396 14.0139 46.8152 13.6885 46.415 13.6885C46.0148 13.6885 45.6904 14.0139 45.6904 14.4153C45.6904 14.8168 46.0148 15.1422 46.415 15.1422Z"/></svg>